<svg width="671" height="485" viewBox="0 0 671 485" fill="none" xmlns="http://www.w3.org/2000/svg">
<g clip-path="url(#clip0)">
<path opacity="0.1" d="M579.188 278.224C557.972 312.886 561.724 359.965 570.814 397.088C573.856 409.518 577.371 422.625 574.665 436.553C571.355 453.583 559.496 467.007 547.52 474.689C525.682 488.704 500.82 488.418 482.815 473.95C467.23 461.445 457.027 439.568 441.13 427.741C414.496 407.945 377.813 420.171 345.902 438.928C323.324 452.191 298.475 468.978 277.714 459.624C263.105 453.042 254.072 434.335 249.885 413.949C247.869 404.111 246.674 393.359 241.989 385.87C239.202 381.42 235.357 378.449 231.369 376.019C194.966 353.849 145.511 372.725 110.427 347.597C86.7292 330.624 73.3589 295.428 69.0847 257.746C64.8105 220.064 68.5932 179.697 73.3092 139.951C76.6813 111.71 81.2106 81.4674 95.9185 58.4405C111.472 34.0836 135.886 23.1326 157.052 25.3141C178.218 27.4956 196.547 41.0631 212.325 57.6325C232.047 78.3412 249.791 104.824 275.399 111.418C292.82 115.911 311.933 110.541 330.492 107.471C361.519 102.338 392.086 103.643 422.422 105.389C451.471 107.061 480.7 109.187 507.733 119.454C526.864 126.719 541.504 141.953 559.341 151.822C570.969 158.255 584.115 159.019 594.941 167.621C608.274 178.186 619.765 197.826 614.303 222.693C609.107 246.341 590.443 259.834 579.188 278.224Z" fill="#2C698D"/>
<path d="M183.102 172.344C183.102 172.344 91.5571 151.897 208.038 32.2625C208.038 32.2625 258.246 79.8016 239.83 138.895C232.427 162.655 208.598 177.322 184.458 172.624L183.102 172.344Z" fill="#5F5D7E"/>
<path opacity="0.4" d="M183.102 172.344C181.092 171.897 93.5107 149.877 208.038 32.2625C208.038 32.2625 258.246 79.8016 239.83 138.895C232.427 162.655 208.598 177.322 184.458 172.624L183.102 172.344Z" fill="white"/>
<path d="M184.315 173.028C184.315 173.028 232.669 100.262 208.05 32.2688" stroke="#535461" stroke-miterlimit="10"/>
<path d="M559.702 243.004C559.702 243.004 543.924 179.541 567.833 134.358C577.875 115.395 581.863 93.7919 578.51 72.6046C576.9 62.5543 574.372 52.6724 570.957 43.083" stroke="#535461" stroke-width="2" stroke-miterlimit="10"/>
<path d="M585.857 14.5184C585.528 22.2003 570.652 43.8722 570.652 43.8722C570.652 43.8722 557.686 21.007 558.016 13.3251C558.244 9.68788 559.892 6.28524 562.604 3.84786C565.316 1.41048 568.877 0.132712 572.522 0.288932C576.167 0.445152 579.605 2.0229 582.098 4.68339C584.592 7.34389 585.941 10.875 585.857 14.5184Z" fill="#2C698D"/>
<path d="M607.048 58.0427C602.593 64.3137 578.311 74.4319 578.311 74.4319C578.311 74.4319 579.866 48.198 584.321 41.927C585.362 40.3922 586.699 39.0805 588.254 38.069C589.81 37.0575 591.551 36.3665 593.378 36.0365C595.204 35.7065 597.078 35.7442 598.889 36.1475C600.701 36.5507 602.413 37.3112 603.926 38.3845C605.44 39.4578 606.723 40.8222 607.701 42.3977C608.68 43.9731 609.333 45.7279 609.623 47.559C609.913 49.3901 609.834 51.2607 609.391 53.061C608.948 54.8613 608.149 56.555 607.042 58.0427H607.048Z" fill="#2C698D"/>
<path d="M602.923 130.697C595.911 133.86 569.837 130.355 569.837 130.355C569.837 130.355 584.439 108.497 591.451 105.327C594.805 103.89 598.59 103.824 601.992 105.145C605.394 106.466 608.142 109.067 609.645 112.39C611.147 115.713 611.285 119.492 610.028 122.915C608.771 126.339 606.22 129.133 602.923 130.697Z" fill="#2C698D"/>
<path d="M587.413 184.967C581.036 189.268 554.743 190.213 554.743 190.213C554.743 190.213 565.438 166.204 571.815 161.897C574.879 159.909 578.601 159.201 582.181 159.928C585.761 160.654 588.912 162.755 590.957 165.779C593.001 168.803 593.775 172.508 593.113 176.097C592.45 179.686 590.403 182.871 587.413 184.967Z" fill="#2C698D"/>
<path d="M549.019 74.6928C554.301 80.2863 579.76 86.924 579.76 86.924C579.76 86.924 574.559 61.1625 569.277 55.5752C566.72 52.9717 563.243 51.4742 559.593 51.4049C555.943 51.3355 552.411 52.6997 549.757 55.2042C547.104 57.7087 545.539 61.1534 545.401 64.7978C545.263 68.4422 546.562 71.9951 549.019 74.6928Z" fill="#2C698D"/>
<path d="M531.686 138.366C538.405 142.095 564.66 140.852 564.66 140.852C564.66 140.852 552.012 117.819 545.286 114.072C542.069 112.374 538.315 112.001 534.826 113.031C531.337 114.062 528.39 116.415 526.614 119.587C524.838 122.759 524.375 126.499 525.322 130.008C526.27 133.517 528.554 136.517 531.686 138.366Z" fill="#2C698D"/>
<path d="M523.343 202.587C529.328 207.416 555.44 210.604 555.44 210.604C555.44 210.604 546.842 185.744 540.856 180.933C537.974 178.7 534.329 177.684 530.705 178.105C527.082 178.526 523.768 180.35 521.475 183.184C519.182 186.019 518.093 189.639 518.442 193.267C518.792 196.894 520.551 200.24 523.343 202.587Z" fill="#2C698D"/>
<path d="M585.857 14.5184C585.528 22.2003 570.652 43.8722 570.652 43.8722C570.652 43.8722 557.686 21.007 558.016 13.3251C558.244 9.68788 559.892 6.28524 562.604 3.84786C565.316 1.41048 568.877 0.132712 572.522 0.288932C576.167 0.445152 579.605 2.0229 582.098 4.68339C584.592 7.34389 585.941 10.875 585.857 14.5184Z" fill="#FC6681"/>
<path d="M607.048 58.0427C602.593 64.3137 578.311 74.4319 578.311 74.4319C578.311 74.4319 579.866 48.198 584.321 41.927C585.362 40.3922 586.699 39.0805 588.254 38.069C589.81 37.0575 591.551 36.3665 593.378 36.0365C595.204 35.7065 597.078 35.7442 598.889 36.1475C600.701 36.5507 602.413 37.3112 603.926 38.3845C605.44 39.4578 606.723 40.8222 607.701 42.3977C608.68 43.9731 609.333 45.7279 609.623 47.559C609.913 49.3901 609.834 51.2607 609.391 53.061C608.948 54.8613 608.149 56.555 607.042 58.0427H607.048Z" fill="#FC6681"/>
<path d="M602.923 130.697C595.911 133.86 569.837 130.355 569.837 130.355C569.837 130.355 584.439 108.497 591.451 105.327C594.805 103.89 598.59 103.824 601.992 105.145C605.394 106.466 608.142 109.067 609.645 112.39C611.147 115.713 611.285 119.492 610.028 122.915C608.771 126.339 606.22 129.133 602.923 130.697Z" fill="#FC6681"/>
<path d="M587.413 184.967C581.036 189.268 554.743 190.213 554.743 190.213C554.743 190.213 565.438 166.204 571.815 161.897C574.879 159.909 578.601 159.201 582.181 159.928C585.761 160.654 588.912 162.755 590.957 165.779C593.001 168.803 593.775 172.508 593.113 176.097C592.45 179.686 590.403 182.871 587.413 184.967Z" fill="#FC6681"/>
<path d="M549.019 74.6928C554.301 80.2863 579.76 86.924 579.76 86.924C579.76 86.924 574.559 61.1625 569.277 55.5752C566.72 52.9717 563.243 51.4742 559.593 51.4049C555.943 51.3355 552.411 52.6997 549.757 55.2042C547.104 57.7087 545.539 61.1534 545.401 64.7978C545.263 68.4422 546.562 71.9951 549.019 74.6928Z" fill="#FC6681"/>
<path d="M531.686 138.366C538.405 142.095 564.66 140.852 564.66 140.852C564.66 140.852 552.012 117.819 545.286 114.072C542.069 112.374 538.315 112.001 534.826 113.031C531.337 114.062 528.39 116.415 526.614 119.587C524.838 122.759 524.375 126.499 525.322 130.008C526.27 133.517 528.554 136.517 531.686 138.366Z" fill="#FC6681"/>
<path d="M523.343 202.587C529.328 207.416 555.44 210.604 555.44 210.604C555.44 210.604 546.842 185.744 540.856 180.933C537.974 178.7 534.329 177.684 530.705 178.105C527.082 178.526 523.768 180.35 521.475 183.184C519.182 186.019 518.093 189.639 518.442 193.267C518.792 196.894 520.551 200.24 523.343 202.587Z" fill="#FC6681"/>
<path d="M501.94 202.015C501.94 202.015 568.113 146.62 582.821 118.683C597.529 90.7464 616.275 66.6816 616.275 66.6816" stroke="#535461" stroke-width="2" stroke-miterlimit="10"/>
<path d="M607.596 129.118L578.976 122.667C578.976 122.667 585.72 152.835 607.596 129.118Z" fill="#272643"/>
<path d="M563.833 98.3101L580.308 122.959C580.308 122.959 548.117 125.296 563.833 98.3101Z" fill="#272643"/>
<path d="M618.857 105.949L592.689 101.362C592.689 101.362 609.132 126.34 618.857 105.949Z" fill="#272643"/>
<path d="M580.158 83.9285L593.074 100.796C593.074 100.796 570.21 102.947 580.158 83.9285Z" fill="#272643"/>
<path d="M606.227 80.5662C606.227 80.5662 628.531 81.6289 631.113 83.7545C633.695 85.8801 627.791 98.3475 619.292 96.3152C610.794 94.2829 606.227 80.5662 606.227 80.5662Z" fill="#272643"/>
<path d="M597.318 60.6716C597.318 60.6716 606.42 77.241 606.078 80.3921C605.735 83.5431 592.21 87.0857 589.472 75.1403C586.735 63.195 597.318 60.6716 597.318 60.6716Z" fill="#272643"/>
<path d="M627.165 71.4153C628.202 68.1429 626.387 64.6502 623.112 63.614C619.836 62.5778 616.339 64.3906 615.302 67.663C614.265 70.9354 616.08 74.4281 619.355 75.4643C622.631 76.5005 626.128 74.6877 627.165 71.4153Z" fill="#FFD037"/>
<path d="M617.429 65.0764C618.466 61.8041 616.652 58.3113 613.376 57.2751C610.1 56.239 606.604 58.0518 605.566 61.3241C604.529 64.5965 606.344 68.0892 609.62 69.1254C612.895 70.1616 616.392 68.3488 617.429 65.0764Z" fill="#FFD037"/>
<path d="M204.604 216.235C204.604 216.235 231.357 196.347 197.76 126.738C197.76 126.738 152.964 71.4237 197.76 19.217C197.76 19.217 100.081 21.7031 101.947 112.443C103.814 203.183 150.787 216.235 150.787 216.235H204.604Z" fill="#272643"/>
<path d="M179.618 216.235C179.618 216.235 172.88 168.379 154.837 139.168C151.274 133.26 148.711 126.805 147.253 120.063C141.224 93.5681 149.822 65.8613 169.302 46.8991L197.766 19.1985" stroke="#535461" stroke-width="2" stroke-miterlimit="10"/>
<path d="M260.318 56.4766C260.318 56.4766 266.465 64.5064 257.481 76.6259C248.497 88.7453 241.093 99.0001 244.086 106.533C244.086 106.533 257.637 84.0218 268.668 83.7048C279.698 83.3879 272.45 70.013 260.318 56.4766Z" fill="#272643"/>
<path opacity="0.1" d="M260.318 56.4766C260.85 57.2526 261.269 58.1001 261.562 58.9937C272.326 71.6227 278.056 83.4127 267.716 83.711C258.078 83.9845 246.519 101.2 243.75 105.545C243.841 105.88 243.951 106.21 244.08 106.533C244.08 106.533 257.63 84.0218 268.661 83.7048C279.692 83.3879 272.45 70.013 260.318 56.4766Z" fill="black"/>
<path d="M271.741 66.7065C271.741 69.5344 271.424 71.8215 271.032 71.8215C270.64 71.8215 270.322 69.5281 270.322 66.7065C270.322 63.8848 270.721 65.2087 271.113 65.2087C271.505 65.2087 271.741 63.8848 271.741 66.7065Z" fill="#FFD037"/>
<path d="M275.661 70.0812C273.172 71.4361 271.013 72.2503 270.826 71.9085C270.64 71.5666 272.5 70.1931 274.982 68.8382C277.465 67.4833 276.488 68.4715 276.675 68.8382C276.861 69.2049 278.143 68.7263 275.661 70.0812Z" fill="#FFD037"/>
<path d="M227.866 56.4766C227.866 56.4766 221.719 64.5064 230.703 76.6259C239.687 88.7453 247.091 99.0001 244.098 106.533C244.098 106.533 230.548 84.0218 219.517 83.7048C208.486 83.3879 215.722 70.013 227.866 56.4766Z" fill="#272643"/>
<path opacity="0.1" d="M227.866 56.4766C227.334 57.2526 226.915 58.1001 226.622 58.9937C215.859 71.6227 210.128 83.4127 220.469 83.711C230.106 83.9845 241.666 101.2 244.434 105.545C244.343 105.88 244.233 106.21 244.105 106.533C244.105 106.533 230.535 84.0156 219.504 83.711C208.474 83.4065 215.722 70.013 227.866 56.4766Z" fill="black"/>
<path d="M216.431 66.7065C216.431 69.5344 216.748 71.8215 217.14 71.8215C217.532 71.8215 217.849 69.5281 217.849 66.7065C217.849 63.8848 217.451 65.2087 217.059 65.2087C216.667 65.2087 216.431 63.8848 216.431 66.7065Z" fill="#FFD037"/>
<path d="M219.51 81.9352C221.999 83.2901 224.158 84.1043 224.345 83.7625C224.531 83.4206 222.671 82.0471 220.189 80.6922C217.706 79.3373 218.683 80.3255 218.496 80.6922C218.31 81.0589 217.028 80.5804 219.51 81.9352Z" fill="#FFD037"/>
<path d="M671 401.364L616.493 161.785H596.241C595.432 152.63 594.891 143.761 594.686 135.408C594.686 135.408 521.271 151.455 462.726 105.029C404.18 58.6021 335.351 109.044 335.351 109.044L335.083 108.851V108.758V108.876C330.305 105.495 264.368 60.3547 207.994 105.066C149.474 151.493 76.0342 135.445 76.0342 135.445C75.8289 143.904 75.2814 152.848 74.4539 162.089H55.6647L0 402.228C0 402.228 226.28 410.693 305.574 402.886C308.417 408.89 320.674 413.402 335.357 413.402C351.857 413.402 365.277 407.703 365.743 400.599C427.468 405.292 560.287 412.793 671 401.364Z" fill="url(#paint0_linear)"/>
<path d="M61.4943 163.892L6.9993 399.033C6.9993 399.033 306.986 410.257 331.145 394.546C331.145 394.546 517.376 413.346 664.001 398.194L610.632 163.618L61.4943 163.892Z" fill="#E2E2EC"/>
<path opacity="0.1" d="M80.0347 172.015L29.2291 391.239C29.2291 391.239 308.915 401.705 331.437 387.056C331.437 387.056 505.064 404.583 641.765 390.456L591.992 171.754L80.0347 172.015Z" fill="black"/>
<path d="M589.285 137.801C589.285 137.801 517.376 153.512 460.075 108.055C402.774 62.5982 335.357 111.983 335.357 111.983C335.357 111.983 267.946 62.5982 210.645 108.055C153.344 153.512 81.4346 137.801 81.4346 137.801C79.1699 229.274 36.4959 377.429 36.4959 377.429C36.4959 377.429 115.143 398.753 219.075 355.546C323.007 312.339 335.363 370.698 335.363 370.698C335.363 370.698 347.719 312.333 451.651 355.546C555.583 398.759 634.23 377.429 634.23 377.429C634.23 377.429 591.531 229.274 589.285 137.801Z" fill="#F1F2FB"/>
<path opacity="0.1" d="M196.603 372.395C196.603 372.395 291.544 351.071 335.344 382.495C335.344 382.495 377.477 344.334 475.225 374.079" fill="black"/>
<path d="M335.357 409.978C351.802 409.978 365.133 404.198 365.133 397.069C365.133 389.94 351.802 384.16 335.357 384.16C318.912 384.16 305.58 389.94 305.58 397.069C305.58 404.198 318.912 409.978 335.357 409.978Z" fill="#E8EAF8"/>
<path opacity="0.1" d="M335.077 111.704C335.077 111.704 356.423 220.014 335.637 372.656L335.077 111.704Z" fill="black"/>
<path opacity="0.1" d="M102.003 171.754C102.003 171.754 146.718 182.133 185.422 171.754C224.127 161.375 295.19 127.422 318.565 171.754" stroke="black" stroke-width="4" stroke-miterlimit="10"/>
<path opacity="0.1" d="M102.003 190.834C102.003 190.834 146.718 201.213 185.422 190.834C224.127 180.455 307.932 181.014 318.565 190.834" stroke="black" stroke-width="4" stroke-miterlimit="10"/>
<path opacity="0.1" d="M102.003 224.476C102.003 224.476 146.718 234.855 185.422 224.476C224.127 214.097 295.19 180.144 318.565 224.476" stroke="black" stroke-width="4" stroke-miterlimit="10"/>
<path opacity="0.1" d="M102.003 243.581C102.003 243.581 146.718 253.961 185.422 243.581C224.127 233.202 307.932 233.762 318.565 243.581" stroke="black" stroke-width="4" stroke-miterlimit="10"/>
<path opacity="0.1" d="M568.717 171.754C568.717 171.754 524.002 182.133 485.298 171.754C446.593 161.375 375.53 127.422 352.155 171.754" stroke="black" stroke-width="4" stroke-miterlimit="10"/>
<path opacity="0.1" d="M568.717 190.834C568.717 190.834 524.002 201.213 485.298 190.834C446.593 180.455 362.788 181.014 352.155 190.834" stroke="black" stroke-width="4" stroke-miterlimit="10"/>
<path opacity="0.1" d="M568.717 224.476C568.717 224.476 524.002 234.855 485.298 224.476C446.593 214.097 375.53 180.144 352.155 224.476" stroke="black" stroke-width="4" stroke-miterlimit="10"/>
<path opacity="0.1" d="M568.717 243.581C568.717 243.581 524.002 253.961 485.298 243.581C446.593 233.202 362.788 233.762 352.155 243.581" stroke="black" stroke-width="4" stroke-miterlimit="10"/>
<path d="M569.625 445.603C571.492 444.179 573.265 442.495 573.806 440.463C574.083 439.383 573.935 438.238 573.392 437.265C572.849 436.291 571.953 435.562 570.888 435.23C568.207 434.397 565.345 435.907 563.167 437.436C560.99 438.965 558.507 440.711 555.664 440.388C558.607 438.263 560.019 434.795 559.198 431.687C559.059 431.01 558.716 430.392 558.215 429.916C556.728 428.617 554.028 429.176 552.248 430.195C546.58 433.446 545 439.717 544.969 445.366C544.397 443.328 544.882 441.208 544.863 439.114C544.845 437.02 544.148 434.708 541.983 433.583C540.598 432.985 539.098 432.698 537.59 432.744C535.045 432.669 532.202 432.874 530.466 434.397C528.307 436.261 528.867 439.45 530.746 441.525C532.625 443.601 535.487 444.906 538.119 446.342C540.129 447.436 542.157 448.71 543.389 450.438C543.546 450.667 543.678 450.913 543.781 451.171H559.752C563.26 449.73 566.577 447.859 569.625 445.603Z" fill="#272643"/>
<path d="M459.198 221.798C459.198 221.798 459.353 222.693 459.615 224.284C459.478 224.532 459.341 224.781 459.198 225.023C454.096 233.6 453.312 245.956 453.791 256.099C454.238 264.28 455.674 272.376 458.066 280.213C460.984 290.398 462.45 300.943 462.421 311.537C464.44 313.718 466.866 315.483 469.563 316.733C469.7 317.149 469.843 317.572 469.968 317.976C472.319 325.804 473.909 333.84 474.715 341.972L476.32 362.271C476.32 362.271 488.62 408.213 492.359 416.759C495.022 422.837 494.437 435.404 493.877 442.141C492.278 446.672 490.331 450.991 488.614 451.464C485.503 452.346 482.392 459.829 486.921 463.589C487.261 463.871 487.625 464.12 488.01 464.335L488.191 464.434L488.52 464.602L489.006 464.82L489.255 464.913L489.771 465.087L489.995 465.155C490.238 465.224 490.486 465.292 490.754 465.354C493.908 465.974 497.179 465.457 499.987 463.894C503.396 463.384 506.426 461.557 508.697 459.711L508.635 462.949H512.368L512.194 456.479C512.866 455.727 513.239 455.236 513.239 455.236C513.239 455.236 513.351 451.327 513.78 446.777L513.506 461.377H517.239L516.231 434.434C516.42 434.032 516.67 433.66 516.972 433.334C520.083 430.227 514.707 420.202 511.926 418.53C513.17 411.942 517.917 402.427 523.392 384.185C531.412 357.46 521.252 331.301 521.252 331.301V310.791C523.946 309.635 525.533 308.846 525.533 308.846C525.533 308.846 521.8 286.944 525.533 271.456C527.953 261.444 528.581 252.55 526.559 244.041C529.247 234.793 531.418 227.652 531.418 227.652L535.151 189.193C536.103 183.42 536.744 178.479 537.155 174.277C537.223 173.755 537.273 173.227 537.298 172.705C537.982 164.88 537.833 159.653 537.385 156.235C537.602 154.668 537.677 153.085 537.609 151.505C537.695 150.694 537.729 149.878 537.708 149.063C538.243 148.441 538.766 147.82 539.264 147.198C540.588 145.555 541.714 143.76 542.617 141.853C546.73 134.103 546.848 124.637 541.105 117.807C537.571 113.599 536.47 109.069 533.415 104.587C530.622 100.486 530.093 95.5694 529.421 90.8459C528.589 84.9745 527.447 79.1511 525.999 73.4002C525.57 71.7097 523.218 70.6718 522.049 69.2672C519.79 66.5512 513.195 66.6444 509.394 66.0415C503.01 65.0285 496.098 64.0838 490.287 66.5885C486.243 68.3349 483.338 71.5108 480.177 74.3138C476.774 77.3281 469.806 78.7824 468.723 82.3934C467.759 83.7732 467.709 85.5009 469.345 87.813C470.926 90.038 473.414 91.629 475.735 93.2947C476.034 93.506 476.314 93.7297 476.606 93.9162C475.819 98.7124 476.595 103.634 478.818 107.957C481.041 112.281 484.595 115.777 488.956 117.931C488.894 118.335 488.825 118.733 488.751 119.125C488.068 122.61 487.128 126.039 485.938 129.386C485.248 131.449 477.259 135.054 471.629 137.366C470.978 136.698 470.202 136.164 469.345 135.793C465.065 134.724 450.631 142.736 449.561 145.408C449.262 146.154 450.046 148.217 451.321 150.815C451.406 151.999 451.599 153.172 451.9 154.321C451.583 159.79 452.155 168.615 454.911 182.804L459.198 221.798ZM519.236 227.808C519.037 227.429 518.832 227.043 518.614 226.645C512.673 214.644 509.145 195.241 517.656 183.668C518.415 183.749 519.174 183.824 519.933 183.873C520.437 199.622 520.145 225.514 520.145 225.514C520.145 225.514 519.809 226.384 519.236 227.808ZM498.027 319.281C499.234 325.341 500.653 332.383 501.978 338.784C503.554 346.238 503.447 353.949 501.667 361.357L496.64 346.292L495.47 319.785L495.395 318.697C496.204 318.56 497.007 318.413 497.803 318.256L498.027 319.281Z" fill="url(#paint1_linear)"/>
<path d="M501.909 337.628C503.461 344.965 503.357 352.555 501.604 359.847C501.291 361.233 500.875 362.593 500.36 363.918L501.779 421.531L501.94 428.063C503.255 428.339 504.584 428.534 505.922 428.648C507.163 428.776 508.414 428.776 509.655 428.648C510.899 428.492 511.994 428.119 512.579 427.405C513.164 426.69 513.289 425.54 512.461 423.868C511.551 422.031 511.199 419.968 511.447 417.933C511.497 417.361 511.59 416.758 511.702 416.137C512.946 409.654 517.594 400.282 522.988 382.333C530.883 356.043 520.885 330.282 520.885 330.282V306.08L495.097 303.451C495.097 303.451 496.341 309.965 498.052 318.429C499.209 324.396 500.603 331.326 501.909 337.628Z" fill="#FDC2CC"/>
<path opacity="0.1" d="M501.909 337.628C503.461 344.965 503.357 352.555 501.604 359.847C501.291 361.233 500.875 362.593 500.36 363.918L501.779 421.531L501.94 428.063C503.255 428.339 504.584 428.534 505.922 428.648C507.163 428.776 508.414 428.776 509.655 428.648C510.899 428.492 511.994 428.119 512.579 427.405C513.164 426.69 513.289 425.54 512.461 423.868C511.551 422.031 511.199 419.968 511.447 417.933C511.497 417.361 511.59 416.758 511.702 416.137C512.946 409.654 517.594 400.282 522.988 382.333C530.883 356.043 520.885 330.282 520.885 330.282V306.08L495.097 303.451C495.097 303.451 496.341 309.965 498.052 318.429C499.209 324.396 500.603 331.326 501.909 337.628Z" fill="black"/>
<path d="M466.116 306.08C467.818 309.662 469.246 313.366 470.391 317.162C472.705 324.866 474.27 332.775 475.063 340.779L476.643 360.761C476.643 360.761 488.751 405.975 492.434 414.391C495.053 420.376 494.481 432.744 493.927 439.388C493.703 442.085 493.485 443.838 493.485 443.838L498.854 437.268L505.891 428.648L509.101 424.714L509.804 423.856C508.955 422.093 508.268 420.256 507.751 418.368C506.123 412.61 505.05 406.71 504.547 400.748C502.967 384.452 502.444 362.364 502.444 362.364L501.611 359.878L496.633 345.018L495.482 318.914L495.053 309.25L466.116 306.08Z" fill="#FDC2CC"/>
<path d="M506.83 419.499C503.992 423.195 501.869 427.387 500.572 431.861C498.898 437.548 495.955 446.286 493.485 446.989C489.802 448.039 486.119 458.555 495.588 460.662C505.057 462.769 512.959 452.247 512.959 452.247C512.959 452.247 513.488 433.844 516.642 430.693C519.796 427.542 514.01 417.019 511.378 415.969C510.327 415.54 508.548 417.281 506.83 419.499Z" fill="#5F5D7E"/>
<path opacity="0.1" d="M492.434 459.083C494.909 459.601 497.484 459.367 499.825 458.412C502.708 457.259 505.208 455.317 507.037 452.81C508.866 450.302 509.95 447.33 510.165 444.235C510.613 438.604 511.559 431.034 513.481 429.114C515.97 426.628 512.859 419.543 510.184 416.155C510.356 416.04 510.552 415.963 510.757 415.931C510.963 415.899 511.173 415.912 511.372 415.969C514.004 417.019 519.796 427.535 516.636 430.693C513.475 433.85 512.953 452.246 512.953 452.246C512.953 452.246 505.07 462.762 495.594 460.649C494.216 460.383 492.923 459.788 491.824 458.915C492.023 458.977 492.222 459.033 492.434 459.083Z" fill="black"/>
<path d="M515.895 431.134L516.91 458.294H513.226L513.736 431.152C513.751 430.879 513.873 430.622 514.075 430.437C514.278 430.252 514.545 430.154 514.819 430.164C515.089 430.156 515.352 430.252 515.553 430.432C515.753 430.613 515.876 430.865 515.895 431.134Z" fill="#5F5D7E"/>
<path opacity="0.15" d="M515.895 431.134L516.91 458.294H513.226L513.736 431.152C513.751 430.879 513.873 430.622 514.075 430.437C514.278 430.252 514.545 430.154 514.819 430.164C515.089 430.156 515.352 430.252 515.553 430.432C515.753 430.613 515.876 430.865 515.895 431.134Z" fill="black"/>
<path d="M502.096 421.078C499.257 424.773 497.135 428.966 495.837 433.44C494.163 439.126 491.22 447.865 488.751 448.567C485.067 449.617 481.384 460.133 490.853 462.24C500.323 464.347 508.224 453.813 508.224 453.813C508.224 453.813 508.753 435.41 511.907 432.259C515.062 429.108 509.276 418.586 506.644 417.535C505.58 417.144 503.813 418.859 502.096 421.078Z" fill="#5F5D7E"/>
<path opacity="0.1" d="M487.699 460.65C490.175 461.168 492.749 460.934 495.09 459.978C497.974 458.825 500.473 456.884 502.302 454.376C504.131 451.869 505.216 448.897 505.431 445.802C505.879 440.171 506.824 432.601 508.747 430.68C511.235 428.194 508.125 421.109 505.449 417.722C505.622 417.606 505.818 417.529 506.023 417.497C506.228 417.465 506.438 417.478 506.638 417.535C509.269 418.586 515.062 429.102 511.901 432.259C508.741 435.416 508.224 453.813 508.224 453.813C508.224 453.813 500.329 464.329 490.853 462.228C489.475 461.962 488.182 461.367 487.083 460.494C487.307 460.556 487.488 460.612 487.699 460.65Z" fill="black"/>
<path d="M511.155 432.681L512.169 459.841H508.461L508.971 432.7C508.985 432.426 509.107 432.169 509.309 431.984C509.512 431.8 509.779 431.702 510.053 431.712C510.328 431.696 510.597 431.79 510.803 431.971C511.009 432.152 511.135 432.408 511.155 432.681Z" fill="#5F5D7E"/>
<path opacity="0.15" d="M511.155 432.681L512.169 459.841H508.461L508.971 432.7C508.985 432.426 509.107 432.169 509.309 431.984C509.512 431.8 509.779 431.702 510.053 431.712C510.328 431.696 510.597 431.79 510.803 431.971C511.009 432.152 511.135 432.408 511.155 432.681Z" fill="black"/>
<path d="M466.645 141.517L487.699 174.644L512.436 177.801C512.436 177.801 527.698 147.832 527.175 146.253C526.653 144.675 518.751 141.524 511.385 135.737C504.018 129.951 512.965 105.768 512.965 105.768L488.757 107.869C488.85 108.192 488.943 108.491 489.012 108.851C489.976 112.934 489.634 117.465 488.894 121.449C488.218 124.873 487.291 128.242 486.119 131.53C485.067 134.681 466.645 141.517 466.645 141.517Z" fill="#FDC2CC"/>
<path opacity="0.1" d="M495.065 303.451C495.065 303.451 496.31 309.965 498.021 318.43C505.857 316.764 513.508 314.324 520.86 311.145V306.08L495.065 303.451Z" fill="black"/>
<path opacity="0.1" d="M466.116 306.08C467.818 309.662 469.246 313.366 470.391 317.162C477.713 320.462 486.822 320.369 495.489 318.896L495.059 309.231L466.116 306.08Z" fill="black"/>
<path d="M459.801 225.639C454.781 234.085 454.009 246.235 454.482 256.254C454.922 264.304 456.334 272.272 458.688 279.983C461.562 290.008 463.007 300.388 462.981 310.816C480.874 330.269 525.085 308.187 525.085 308.187C525.085 308.187 521.402 286.633 525.085 271.382C527.648 260.779 528.196 251.437 525.595 242.488C524.398 238.398 522.633 234.496 520.35 230.896C519.653 229.79 518.975 228.566 518.322 227.254C512.225 214.936 508.703 194.7 518.509 183.538C519.528 182.376 520.676 181.333 521.93 180.43C530.479 174.246 534.374 167.378 536.016 161.567C537.044 157.957 537.256 154.163 536.638 150.461C535.587 144.675 520.848 139.417 520.848 139.417C521.377 156.769 499.271 171.487 499.271 171.487C499.271 171.487 474.005 138.888 469.8 137.838C465.594 136.788 451.377 144.675 450.326 147.304C449.274 149.933 461.904 169.386 461.904 169.386C461.904 169.386 469.806 208.814 459.801 225.639Z" fill="#D39999"/>
<path opacity="0.1" d="M521.912 180.424C530.46 174.24 534.355 167.372 535.997 161.561C535.587 152.86 533.509 151.511 533.509 151.511C533.509 151.511 516.119 168.329 517.7 174.134C518.06 175.47 518.322 178.963 518.49 183.556C519.508 182.386 520.656 181.335 521.912 180.424Z" fill="black"/>
<path opacity="0.1" d="M492.434 300.3C496.117 311.345 514.539 291.885 515.068 283.476C515.404 278.094 521.346 256.994 525.576 242.494C524.379 238.404 522.614 234.502 520.331 230.903C519.635 229.796 518.956 228.572 518.303 227.261C516.306 232.164 508.286 252.264 508.753 258.243C509.282 265.079 505.592 275.067 505.592 275.067C505.592 275.067 488.751 289.256 492.434 300.3Z" fill="black"/>
<path d="M534.542 151.505C534.542 151.505 540.334 155.184 534.542 190.411L530.858 228.267C530.858 228.267 516.648 275.061 516.119 283.476C515.591 291.891 497.175 311.338 493.485 300.3C489.796 289.262 506.644 275.061 506.644 275.061C506.644 275.061 510.327 265.073 509.804 258.236C509.282 251.4 519.803 226.167 519.803 226.167C519.803 226.167 520.331 179.902 518.751 174.115C517.171 168.329 534.542 151.505 534.542 151.505Z" fill="#FDC2CC"/>
<path opacity="0.1" d="M456.647 147.297C456.647 147.297 449.803 148.876 456.647 184.103L460.859 222.487C460.859 222.487 470.335 277.696 469.806 284.017C469.277 290.337 490.337 306.627 491.911 297.69C493.485 288.753 481.384 274.029 481.384 274.029C481.384 274.029 476.108 262.444 476.108 240.884L475.057 223.532L467.697 160.971L456.647 147.297Z" fill="black"/>
<path d="M455.577 147.297C455.577 147.297 448.733 148.876 455.577 184.103L459.789 222.487C459.789 222.487 469.264 277.696 468.736 284.017C468.207 290.337 489.267 306.627 490.841 297.69C492.415 288.753 480.314 274.029 480.314 274.029C480.314 274.029 475.051 262.463 475.051 240.903L473.999 223.55L466.645 160.971L455.577 147.297Z" fill="#FDC2CC"/>
<path opacity="0.1" d="M452.174 149.137C452.174 149.137 449.013 165.961 471.119 171.747C493.224 177.534 468.487 151.76 468.487 151.76C468.487 151.76 460.069 139.149 452.174 149.137Z" fill="black"/>
<path d="M452.696 148.615C452.696 148.615 449.542 165.433 471.647 171.219C493.753 177.006 469.016 151.238 469.016 151.238C469.016 151.238 460.592 138.621 452.696 148.615Z" fill="#D39999"/>
<path opacity="0.1" d="M536.912 149.137C536.912 149.137 540.073 165.961 517.967 171.747C495.862 177.534 520.593 151.76 520.593 151.76C520.593 151.76 528.992 139.149 536.912 149.137Z" fill="black"/>
<path d="M536.383 148.615C536.383 148.615 539.569 165.433 517.438 171.219C495.308 177.006 520.07 151.238 520.07 151.238C520.07 151.238 528.488 138.621 536.383 148.615Z" fill="#D39999"/>
<path opacity="0.1" d="M488.894 121.443C491.799 122.288 495.053 115.489 498.487 115.489C502.127 115.489 505.555 122.767 508.591 121.225C509.477 116.324 510.762 111.504 512.436 106.812L489.012 108.876C489.97 112.934 489.634 117.459 488.894 121.443Z" fill="black"/>
<path d="M499.016 122.586C511.369 122.586 521.383 112.583 521.383 100.243C521.383 87.9033 511.369 77.8999 499.016 77.8999C486.663 77.8999 476.65 87.9033 476.65 100.243C476.65 112.583 486.663 122.586 499.016 122.586Z" fill="#FDC2CC"/>
<path opacity="0.1" d="M469.787 90.5973C471.342 92.785 473.794 94.3263 476.077 95.992C478.9 98.0116 481.566 100.241 484.053 102.661C485.811 104.265 487.315 106.126 488.514 108.18C490.287 111.486 490.524 115.228 490.735 118.87L492.907 156.49C493.05 158.976 493.193 161.518 492.558 163.948C491.915 166.018 491.009 167.998 489.864 169.84C486.996 174.923 484.047 180.107 479.431 184.134C477.888 185.47 476.009 187.198 476.824 188.951C477.483 190.362 479.511 190.815 481.254 191.021C488.564 192.003 496.664 192.842 502.818 189.28C505.138 187.938 507.061 186.011 509.661 185.178C513.282 184.029 517.277 185.228 521.134 185.222C525.228 185.222 529.135 183.861 532.955 182.518C533.688 182.333 534.358 181.956 534.896 181.424C535.201 180.983 535.391 180.472 535.45 179.939C536.029 176.887 536.576 173.724 535.63 170.734C534.604 167.496 531.897 164.693 531.593 161.35C531.194 156.701 535.487 152.916 538.573 149.094C545.143 140.958 546.605 129.243 539.861 121.219C536.383 117.08 535.294 112.617 532.289 108.211C529.539 104.177 529.017 99.3357 528.357 94.6868C527.537 88.9073 526.411 83.1752 524.985 77.5145C524.568 75.8489 522.248 74.8296 521.097 73.4436C518.869 70.7712 512.386 70.8644 508.653 70.2677C502.37 69.2733 495.588 68.3411 489.846 70.8084C485.864 72.5238 483.002 75.6562 479.891 78.4095C475.486 82.3374 464.797 83.568 469.787 90.5973Z" fill="black"/>
<path d="M470.316 89.547C471.871 91.7347 474.323 93.276 476.606 94.9417C479.429 96.9653 482.095 99.1987 484.582 101.623C486.339 103.227 487.843 105.088 489.043 107.142C490.816 110.448 491.053 114.19 491.264 117.832L493.454 155.439C493.597 157.925 493.74 160.467 493.106 162.897C492.462 164.968 491.557 166.948 490.412 168.789C487.544 173.873 484.594 179.057 479.978 183.084C478.435 184.42 476.556 186.148 477.371 187.901C478.031 189.311 480.059 189.765 481.801 189.97C489.111 190.952 497.212 191.791 503.365 188.23C505.686 186.888 507.608 184.961 510.209 184.128C513.83 182.978 517.824 184.178 521.681 184.172C525.775 184.172 529.682 182.81 533.503 181.468C534.236 181.283 534.906 180.905 535.444 180.374C535.749 179.932 535.939 179.422 535.997 178.889C536.576 175.837 537.123 172.674 536.178 169.684C535.151 166.446 532.445 163.643 532.14 160.299C531.742 155.651 536.035 151.866 539.121 148.043C545.691 139.908 547.153 128.192 540.408 120.169C536.931 116.029 535.842 111.567 532.837 107.161C530.087 103.127 529.564 98.2854 528.905 93.6365C528.084 87.857 526.959 82.125 525.533 76.4642C525.116 74.7986 522.795 73.7793 521.644 72.3934C519.417 69.7209 512.934 69.8141 509.201 69.2174C502.917 68.223 496.136 67.2908 490.393 69.7582C486.411 71.4735 483.549 74.6059 480.438 77.3592C475.984 81.2871 465.326 82.5177 470.316 89.547Z" fill="#865A61"/>
</g>
<defs>
<linearGradient id="paint0_linear" x1="335.5" y1="413.396" x2="335.5" y2="85.4015" gradientUnits="userSpaceOnUse">
<stop stop-color="#808080" stop-opacity="0.25"/>
<stop offset="0.54" stop-color="#808080" stop-opacity="0.12"/>
<stop offset="1" stop-color="#808080" stop-opacity="0.1"/>
</linearGradient>
<linearGradient id="paint1_linear" x1="-86526.4" y1="324193" x2="-86526.4" y2="65938.6" gradientUnits="userSpaceOnUse">
<stop stop-color="#808080" stop-opacity="0.25"/>
<stop offset="0.54" stop-color="#808080" stop-opacity="0.12"/>
<stop offset="1" stop-color="#808080" stop-opacity="0.1"/>
</linearGradient>
<clipPath id="clip0">
<rect width="671" height="485" fill="white"/>
</clipPath>
</defs>
</svg>
